<?xml version="1.0" standalone="no"?>
<!DOCTYPE svg PUBLIC "-//W3C//DTD SVG 20010904//EN"
 "http://www.w3.org/TR/2001/REC-SVG-20010904/DTD/svg10.dtd">
<svg version="1.0" xmlns="http://www.w3.org/2000/svg"
 width="1311.000000pt" height="726.000000pt" viewBox="0 0 1311.000000 726.000000"
 preserveAspectRatio="xMidYMid meet">

<g transform="translate(0.000000,726.000000) scale(0.100000,-0.100000)"
fill="#ffffff" stroke="none">
<path d="M4295 7163 c-69 -9 -241 -57 -323 -89 -229 -93 -464 -255 -678 -469
-277 -277 -463 -579 -579 -943 -32 -97 -61 -186 -65 -198 -5 -14 -26 -25 -71
-38 -96 -26 -223 -89 -293 -146 -110 -87 -202 -213 -397 -542 l-116 -197 -105
-303 c-333 -957 -330 -1115 42 -2251 l81 -246 103 -108 103 -108 -19 -62 c-20
-69 -10 -61 -141 -94 -28 -7 -102 -46 -174 -91 -242 -152 -343 -246 -417 -388
-45 -87 -88 -208 -76 -215 21 -13 47 16 64 72 55 177 165 304 391 451 77 50
144 95 150 100 5 5 101 -36 230 -99 655 -318 1070 -447 1675 -523 706 -88
1803 -88 2991 0 173 13 221 13 240 4 13 -7 83 -51 154 -98 216 -141 327 -271
381 -445 17 -56 43 -85 64 -72 11 7 -29 123 -70 205 -87 172 -207 273 -613
514 -151 90 -163 103 -155 157 3 19 22 28 153 69 433 135 611 233 985 541
l105 86 73 7 c189 17 458 169 513 290 23 50 25 144 5 210 l-14 46 53 36 c85
56 218 202 259 285 20 39 36 85 36 102 0 48 -38 114 -88 154 -26 20 -50 40
-54 43 -4 3 -14 52 -23 110 -33 222 -102 408 -200 540 -27 36 -121 136 -209
222 -88 87 -158 159 -156 160 3 2 54 28 113 58 130 66 258 160 400 293 68 64
125 108 163 126 147 70 254 187 313 340 83 216 62 372 -76 546 -44 55 -47 64
-48 120 -3 104 -42 151 -197 231 l-88 45 0 44 c0 51 -4 55 -205 190 -130 87
-322 187 -425 221 -30 10 -60 23 -66 28 -6 6 -37 81 -69 166 -186 498 -375
704 -730 796 -125 32 -321 43 -458 24 -199 -26 -442 -102 -763 -236 -88 -37
-169 -68 -182 -69 -13 -2 -99 32 -195 77 -534 248 -817 330 -1137 326 -74 0
-148 -3 -165 -5z m420 -57 c244 -43 513 -140 892 -321 l159 -76 67 -157 c92
-217 117 -285 133 -370 20 -106 19 -142 -5 -142 -11 0 -21 -7 -23 -15 -2 -11
-25 1 -83 44 -460 344 -916 415 -1472 231 -174 -58 -645 -253 -676 -279 -4 -4
-1 -15 6 -24 11 -16 26 -11 182 58 498 223 753 295 1044 295 398 0 679 -128
1139 -519 61 -52 110 -97 107 -99 -2 -2 -84 4 -182 14 -243 25 -615 25 -769 1
-222 -35 -429 -107 -681 -235 -468 -238 -501 -252 -665 -277 -30 -5 -38 -10
-38 -27 0 -20 3 -20 68 -14 99 10 220 55 403 148 405 208 527 262 699 311 183
53 264 62 570 62 401 0 679 -31 720 -80 6 -8 34 -21 60 -30 56 -19 147 -95
165 -138 10 -24 10 -35 -2 -57 l-13 -28 -108 34 c-400 127 -732 179 -987 155
-320 -31 -555 -112 -1050 -366 -286 -146 -322 -161 -433 -176 -90 -13 -225 2
-254 27 -16 16 -20 14 -52 -22 -49 -55 -72 -108 -60 -142 19 -55 155 -100 384
-125 58 -6 110 -17 115 -23 15 -18 279 -159 430 -231 305 -144 575 -203 936
-203 347 0 620 49 976 176 86 30 158 52 161 49 4 -4 8 -39 10 -80 5 -91 -19
-141 -87 -184 -145 -92 -576 -136 -1100 -112 -560 25 -851 82 -1127 222 -88
45 -120 56 -126 47 -4 -7 -6 -17 -5 -23 5 -18 240 -129 346 -164 298 -97 693
-137 1261 -128 347 5 513 21 650 63 173 52 250 145 237 286 -4 43 -2 58 6 55
54 -20 257 -82 335 -102 353 -89 802 -96 1327 -20 361 52 576 135 716 276 59
58 58 46 -3 -74 -55 -106 -134 -178 -262 -237 -52 -25 -95 -50 -96 -57 0 -19
-187 -188 -285 -258 -223 -160 -555 -278 -851 -304 -187 -16 -350 11 -558 95
-107 43 -125 44 -126 11 0 -12 100 -54 226 -96 64 -21 126 -49 150 -67 21 -17
60 -43 86 -57 26 -15 64 -44 84 -65 35 -35 94 -142 94 -169 0 -14 10 -16 34
-7 13 5 12 13 -6 62 -37 101 -103 179 -188 222 -22 11 -40 21 -40 23 0 1 48 0
107 -1 175 -6 367 26 576 97 l89 29 56 -51 c156 -142 313 -308 360 -380 83
-127 150 -333 168 -517 l6 -68 -68 -21 c-38 -11 -139 -40 -224 -65 -326 -95
-691 -176 -952 -210 -576 -75 -1266 -26 -1944 139 -456 111 -748 237 -1144
493 -105 68 -122 76 -200 89 -52 9 -126 14 -190 11 -92 -3 -113 -7 -172 -35
-78 -37 -142 -97 -171 -162 -17 -37 -21 -66 -22 -151 l0 -105 47 -95 c65 -133
118 -208 207 -293 91 -87 173 -142 306 -207 266 -129 784 -263 1415 -365 777
-125 1403 -183 2012 -188 159 -1 288 -4 288 -7 0 -3 -60 -53 -132 -112 -304
-243 -493 -342 -888 -464 -80 -25 -158 -51 -175 -58 -28 -13 -400 -53 -695
-76 -751 -58 -1782 22 -2723 211 -523 105 -879 226 -1103 375 -85 56 -208 169
-256 234 -38 51 -236 661 -307 947 -63 254 -84 440 -70 632 18 237 70 435 250
948 99 282 99 282 220 485 155 260 215 345 308 439 82 82 161 131 279 173 97
35 103 34 91 -6 -11 -37 -84 -462 -94 -550 -6 -50 -5 -58 9 -58 25 0 33 30 61
215 115 757 296 1168 700 1584 317 326 676 528 1018 571 91 11 288 4 392 -14z
m2384 -87 c264 -42 466 -177 609 -404 61 -99 233 -498 219 -511 -2 -2 -56 5
-119 16 -193 32 -373 43 -618 37 -303 -9 -524 -29 -1122 -104 l-48 -6 0 57 c0
101 -30 199 -143 463 -32 72 -57 136 -57 141 0 11 42 30 235 109 470 192 758
248 1044 202z m639 -933 c301 -49 500 -134 795 -340 85 -59 103 -76 105 -100
l4 -29 -49 6 c-156 21 -667 69 -830 79 -409 24 -660 -24 -1001 -192 -90 -44
-166 -80 -168 -80 -2 0 -4 7 -4 15 0 29 -39 92 -77 124 -21 18 -50 44 -64 57
-15 13 -42 26 -60 29 -18 3 -36 10 -39 15 -3 5 -38 33 -77 62 -40 29 -126 99
-193 155 -103 89 -117 103 -97 108 81 18 724 88 1002 109 28 2 185 2 350 1
221 -2 327 -7 403 -19z m130 -437 c81 -6 287 -25 458 -43 l311 -32 86 -43
c171 -85 207 -122 207 -215 0 -25 -2 -46 -5 -46 -3 0 -87 29 -186 65 -439 160
-669 203 -1014 192 -215 -7 -419 -37 -679 -101 -188 -47 -425 -112 -432 -119
-7 -7 7 -37 18 -37 5 0 98 24 206 54 444 122 672 158 977 158 312 -1 553 -54
990 -220 66 -25 128 -45 137 -46 24 -1 112 -125 138 -192 11 -30 20 -70 20
-88 l0 -33 -87 87 c-106 105 -215 174 -373 235 -193 75 -379 122 -584 146
-125 15 -385 6 -486 -16 -193 -42 -405 -135 -652 -286 l-148 -90 -32 38 c-150
176 -330 268 -655 337 -346 73 -714 82 -995 26 -291 -60 -552 -194 -914 -470
l-141 -108 -129 19 c-143 21 -255 51 -274 74 -15 18 -7 52 20 83 18 22 22 23
76 13 32 -6 94 -11 138 -11 151 0 193 15 551 194 440 219 613 286 860 332 137
26 446 26 590 0 127 -23 372 -84 540 -135 71 -22 132 -36 135 -31 10 16 314
169 418 210 118 47 270 85 387 98 116 13 354 14 523 1z m-1971 -308 c368 -56
612 -151 748 -290 l39 -41 -49 -206 -50 -205 -35 -15 c-19 -9 -120 -44 -225
-79 -330 -111 -547 -147 -875 -148 -273 -1 -444 23 -663 93 -160 51 -413 171
-630 297 l-68 40 118 89 c408 311 657 429 1008 479 144 20 507 13 682 -14z
m2232 -27 c58 -8 158 -28 222 -44 321 -81 543 -201 682 -367 l60 -73 -19 -27
c-36 -56 -121 -137 -191 -183 -150 -99 -403 -165 -785 -205 -200 -20 -218 -20
-138 8 178 60 301 203 331 383 32 194 -80 407 -262 497 -63 32 -51 34 100 11z
m-615 -40 c-150 -100 -220 -242 -212 -426 3 -79 9 -103 36 -161 41 -89 82
-140 154 -193 64 -47 142 -80 221 -93 42 -7 22 -9 -98 -10 -300 -2 -537 34
-811 123 -115 38 -166 50 -173 43 -15 -15 -15 -12 26 151 37 149 51 180 88
199 11 5 85 51 165 102 170 108 390 218 510 256 47 15 90 28 95 30 33 11 33 2
-1 -21z m125 -154 c31 -16 46 -65 30 -101 -14 -35 -66 -63 -96 -52 -62 22 -84
95 -41 140 23 25 74 31 107 13z m480 -106 c76 -64 29 -184 -71 -184 -28 0 -47
8 -70 29 -28 25 -33 36 -33 76 0 40 5 51 33 76 43 38 98 40 141 3z m-515 -267
c21 -16 18 -45 -6 -61 -35 -22 -74 27 -48 59 15 18 31 19 54 2z m-3479 -1568
c46 -10 84 -28 160 -79 302 -201 594 -339 913 -434 581 -173 1297 -265 1840
-237 440 23 796 90 1389 262 137 40 251 68 262 64 11 -3 38 -26 61 -51 40 -44
42 -49 38 -95 -3 -31 -17 -68 -39 -105 -45 -74 -168 -201 -245 -251 l-62 -40
-228 -22 c-1174 -111 -2438 -62 -3169 121 -377 94 -582 194 -1051 513 -14 9
-33 -6 -34 -27 0 -12 336 -232 435 -285 430 -231 891 -338 1710 -397 695 -51
1415 -39 2155 33 136 14 187 16 192 7 15 -22 30 -120 24 -154 -13 -81 -107
-169 -262 -243 -136 -64 -168 -70 -469 -76 -713 -15 -1750 89 -2620 262 -470
94 -777 184 -1000 295 -242 120 -358 230 -466 443 -59 118 -59 119 -59 205 0
70 5 97 24 137 68 148 250 204 501 154z m-1850 -1815 c378 -183 1104 -343
2010 -444 782 -86 1422 -85 2199 5 144 17 145 16 146 -45 0 -34 4 -37 90 -85
49 -27 90 -53 90 -56 0 -8 -72 -14 -460 -39 -484 -31 -820 -41 -1335 -42
-1416 0 -2059 123 -2949 565 -110 55 -196 101 -191 103 6 1 36 10 67 18 l57
16 21 69 20 69 53 -35 c28 -20 111 -64 182 -99z"/>
<path d="M5995 3969 c-234 -147 -488 -259 -760 -333 -86 -24 -121 -38 -123
-50 -2 -9 3 -18 10 -21 19 -7 299 73 418 120 212 84 607 303 596 332 -3 8 -6
17 -6 19 0 13 -37 -5 -135 -67z"/>
<path d="M5163 5300 c-326 -85 -486 -409 -330 -669 18 -29 58 -78 90 -107 270
-251 750 -179 904 134 37 75 38 78 38 192 0 107 -2 119 -29 175 -40 82 -151
191 -237 233 -131 63 -295 79 -436 42z m-113 -260 c21 0 50 -46 50 -79 0 -64
-70 -103 -129 -71 -31 16 -46 65 -31 101 14 32 63 62 88 54 8 -3 18 -5 22 -5z
m576 -44 c38 -38 44 -77 19 -126 -19 -37 -43 -50 -95 -50 -107 0 -140 146 -45
198 40 22 85 14 121 -22z m-431 -326 c8 -27 -11 -50 -41 -50 -17 0 -25 7 -30
24 -8 34 2 46 36 46 20 0 31 -6 35 -20z"/>
</g>
</svg>
