<svg xmlns="http://www.w3.org/2000/svg" id="svg86" width="503" height="513" version="1.1" viewBox="0 120 503 313">
    <style id="style47">
        .H {
            fill: none
        }

        .I {
            stroke: #000
        }

        .J {
            stroke-width: 2
        }

        .K {
            stroke-miterlimit: 10
        }
    </style>
    <g id="g55" class="I J K">
        <path id="path49" fill="#556b2f"
            d="M497 262c3 29-14 37-28 43-5 11-28 27-38 28 13 4 41 46 36 67 9 3 17 17 1 27-30 20 17 30-50 46-91 78-193 49-321 29-62-8-88-66-87-137-3-11 34-132 76-132 31-101 103-133 200-83 48-32 129-29 137 42 14 4 34 15 44 24-3 11 10 11 18 16-4 15 6 14 12 30z" />
        <path id="path51" d="M180 297c13 16 178 36 155-9" class="H" />
        <path id="path53" fill="#fff"
            d="m344 258-7 29c-15 13-122 28-161-12 36-43 122-55 168-17zm152 13c-20 38-122 36-158 17 13-62 125-64 158-17z" />
    </g>
    <g id="g67">
        <animate attributeName="fill" dur="6.8" repeatCount="indefinite" values="#000;#245ea4;#000" />
        <path id="A" d="M256 241c45-1 45 60 0 60s-45-61 0-60z" />
        <use id="use58" class="H I J K" href="#A" />
        <path id="B" d="M444 268c0 39-63 39-63 0s63-39 63 0z" />
        <g id="g65" class="I J K">
            <use id="use61" class="H" href="#B" />
            <path id="path63" fill="#fff"
                d="M237 258c7 0 7 11 0 11s-8-11 0-11zm33 1c8-1 8 13 0 13-9 0-9-13 0-13zm-24 20c3 0 3 5 0 5-4 0-4-5 0-5zm182-21c9 0 9 12 0 13-9 0-9-12 0-13zm-29-5c7-1 7 10 0 10s-7-11 0-10zm0 23c4 0 4 6 0 6s-4-6 0-6z" />
        </g>
    </g>
    <path id="path69"
        d="M242 350c18-3 49-16 65-28m122 11c-26 11-55 14-77-1m41 30c1-7-12-20-17-20m-38-101c49-13 90-23 147 4"
        class="H I J K" />
    <path id="C" fill="brown"
        d="M419 472c-59 1-305-11-268-91 37-25 52 17 93 23 104 31 158 19 225-4 21 7 3 28-13 39 19 20-34 34-37 33z" />
    <g id="g80" class="I">
        <g id="g76" class="J K">
            <use id="use72" href="#C" />
            <path id="path74"
                d="M170 399c55 57 250 42 284 39M79 273l9-37m86 38c-24 2-45-19-4-14 26-9 49-30 86-34 34-1 43 1 76 12 31-27 82-23 132-16m-130 11c-6-29-83-20-79-20-29 1-62 29-92 33m-10-49c44-34 128-32 160 17m-29-63c7 6 17 30 14 44 32-7 85-10 123-4"
                class="H" transform="translate(2)" />
        </g>
    </g>
</svg>