<?xml version="1.0" encoding="UTF-8" standalone="no"?>
<svg
   id="svg86"
   width="503"
   height="444"
   version="1.1"
   viewBox="-1 222 503 205.70285"
   xmlns="http://www.w3.org/2000/svg"
   xmlnsSvg="http://www.w3.org/2000/svg">
  <defs
     id="defs1119" />
  <style
     id="style47">
        .H {
            fill: none
        }

        .I {
            stroke: #000
        }

        .J {
            stroke-width: 2
        }

        .K {
            stroke-miterlimit: 10
        }
    </style>
  <g
     id="g55"
     class="I J K">
    <path
       id="path49"
       fill="#556b2f"
       d="m 497,262 c 3,29 -14,37 -28,43 -5,11 -28,27 -38,28 13,4 41,46 36,67 9,3 17,17 1,27 -30,20 17,30 -50,46 C 327,551 225,522 97,502 35,494 9,436 10,365 7,354 44,233 86,233 117,132 189,100 286,150 c 48,-32 129,-29 137,42 14,4 34,15 44,24 -3,11 10,11 18,16 -4,15 6,14 12,30 z" />
    <path
       id="path51"
       d="m 180,297 c 13,16 178,36 155,-9"
       class="H" />
    <path
       id="path53"
       fill="#ffffff"
       d="m 344,258 -7,29 c -15,13 -122,28 -161,-12 36,-43 122,-55 168,-17 z m 152,13 c -20,38 -122,36 -158,17 13,-62 125,-64 158,-17 z" />
  </g>
  <g
     id="g67">
    <animate
       attributeName="fill"
       dur="6.8"
       repeatCount="indefinite"
       values="#000;#245ea4;#000" />
    <path
       id="A"
       d="m 256,241 c 45,-1 45,60 0,60 -45,0 -45,-61 0,-60 z" />
    <use
       id="use58"
       class="H I J K"
       href="#A" />
    <path
       id="B"
       d="m 444,268 c 0,39 -63,39 -63,0 0,-39 63,-39 63,0 z" />
    <g
       id="g65"
       class="I J K">
      <use
         id="use61"
         class="H"
         href="#B" />
      <path
         id="path63"
         fill="#ffffff"
         d="m 237,258 c 7,0 7,11 0,11 -7,0 -8,-11 0,-11 z m 33,1 c 8,-1 8,13 0,13 -9,0 -9,-13 0,-13 z m -24,20 c 3,0 3,5 0,5 -4,0 -4,-5 0,-5 z m 182,-21 c 9,0 9,12 0,13 -9,0 -9,-12 0,-13 z m -29,-5 c 7,-1 7,10 0,10 -7,0 -7,-11 0,-10 z m 0,23 c 4,0 4,6 0,6 -4,0 -4,-6 0,-6 z" />
    </g>
  </g>
  <path
     id="path69"
     d="m 242,350 c 18,-3 49,-16 65,-28 m 122,11 c -26,11 -55,14 -77,-1 m 41,30 c 1,-7 -12,-20 -17,-20 M 338,241 c 49,-13 90,-23 147,4"
     class="H I J K" />
  <path
     id="C"
     fill="#a52a2a"
     d="m 419,472 c -59,1 -305,-11 -268,-91 37,-25 52,17 93,23 104,31 158,19 225,-4 21,7 3,28 -13,39 19,20 -34,34 -37,33 z" />
  <g
     id="g80"
     class="I">
    <g
       id="g76"
       class="J K">
      <use
         id="use72"
         href="#C" />
      <path
         id="path74"
         d="m 170,399 c 55,57 250,42 284,39 M 79,273 88,236 m 86,38 c -24,2 -45,-19 -4,-14 26,-9 49,-30 86,-34 34,-1 43,1 76,12 31,-27 82,-23 132,-16 m -130,11 c -6,-29 -83,-20 -79,-20 -29,1 -62,29 -92,33 m -10,-49 c 44,-34 128,-32 160,17 m -29,-63 c 7,6 17,30 14,44 32,-7 85,-10 123,-4"
         class="H"
         transform="translate(2)" />
    </g>
  </g>
</svg>
